<svg xmlns="http://www.w3.org/2000/svg" xmlns:xlink="http://www.w3.org/1999/xlink" width="600" zoomAndPan="magnify" viewBox="0 0 450 449.999984" height="600" preserveAspectRatio="xMidYMid meet" version="1.0"><defs><clipPath id="8427d08617"><path d="M 125.917969 15.195312 L 323.917969 15.195312 L 323.917969 434.445312 L 125.917969 434.445312 Z M 125.917969 15.195312 " clip-rule="nonzero"/></clipPath></defs><g clip-path="url(#8427d08617)"><path fill="#060644" d="M 278.363281 84.859375 L 324.082031 84.859375 L 324.082031 15.929688 L 265.703125 15.929688 L 265.703125 16.195312 C 188.953125 19.007812 173.128906 62 171.808594 107.453125 L 171.632812 107.453125 L 171.632812 155.277344 L 125.917969 155.277344 L 125.917969 224.292969 L 171.632812 224.292969 L 171.632812 434.0625 L 253.660156 434.0625 L 253.660156 224.292969 L 312.476562 224.292969 L 324.082031 155.277344 L 253.660156 155.277344 L 253.660156 112.464844 C 253.660156 97.253906 263.855469 84.859375 278.363281 84.859375 Z M 278.363281 84.859375 " fill-opacity="1" fill-rule="nonzero"/></g></svg>