<svg xmlns="http://www.w3.org/2000/svg" xmlns:xlink="http://www.w3.org/1999/xlink" width="600" zoomAndPan="magnify" viewBox="0 0 450 449.999984" height="600" preserveAspectRatio="xMidYMid meet" version="1.0"><defs><clipPath id="a0106d6d1d"><path d="M 15.085938 15.085938 L 435 15.085938 L 435 435 L 15.085938 435 Z M 15.085938 15.085938 " clip-rule="nonzero"/></clipPath></defs><g clip-path="url(#a0106d6d1d)"><path fill="#060644" d="M 372.503906 434.910156 L 77.492188 434.910156 C 43.082031 434.910156 15.085938 406.914062 15.085938 372.503906 L 15.085938 77.492188 C 15.085938 43.082031 43.082031 15.085938 77.492188 15.085938 L 372.503906 15.085938 C 406.914062 15.085938 434.910156 43.082031 434.910156 77.492188 L 434.910156 372.503906 C 434.910156 406.914062 406.914062 434.910156 372.503906 434.910156 Z M 77.492188 37.78125 C 55.59375 37.78125 37.78125 55.59375 37.78125 77.492188 L 37.78125 372.503906 C 37.78125 394.402344 55.59375 412.21875 77.492188 412.21875 L 372.503906 412.21875 C 394.402344 412.21875 412.21875 394.402344 412.21875 372.503906 L 412.21875 77.492188 C 412.21875 55.59375 394.402344 37.78125 372.503906 37.78125 Z M 77.492188 37.78125 " fill-opacity="1" fill-rule="nonzero"/></g><path fill="#060644" d="M 225 344.136719 C 159.304688 344.136719 105.859375 290.691406 105.859375 225 C 105.859375 159.304688 159.304688 105.859375 225 105.859375 C 290.691406 105.859375 344.136719 159.304688 344.136719 225 C 344.136719 290.691406 290.691406 344.136719 225 344.136719 Z M 225 128.554688 C 171.820312 128.554688 128.554688 171.820312 128.554688 225 C 128.554688 278.179688 171.820312 321.445312 225 321.445312 C 278.179688 321.445312 321.445312 278.179688 321.445312 225 C 321.445312 171.820312 278.179688 128.554688 225 128.554688 Z M 225 128.554688 " fill-opacity="1" fill-rule="nonzero"/><path fill="#060644" d="M 349.8125 139.898438 C 327.914062 139.898438 310.097656 122.085938 310.097656 100.1875 C 310.097656 78.289062 327.914062 60.472656 349.8125 60.472656 C 371.710938 60.472656 389.523438 78.289062 389.523438 100.1875 C 389.523438 122.085938 371.710938 139.898438 349.8125 139.898438 Z M 349.8125 83.167969 C 340.425781 83.167969 332.792969 90.800781 332.792969 100.1875 C 332.792969 109.570312 340.425781 117.207031 349.8125 117.207031 C 359.195312 117.207031 366.832031 109.570312 366.832031 100.1875 C 366.832031 90.800781 359.195312 83.167969 349.8125 83.167969 Z M 349.8125 83.167969 " fill-opacity="1" fill-rule="nonzero"/></svg>