<svg xmlns="http://www.w3.org/2000/svg" xmlns:xlink="http://www.w3.org/1999/xlink" width="600" zoomAndPan="magnify" viewBox="0 0 450 449.999984" height="600" preserveAspectRatio="xMidYMid meet" version="1.0"><defs><clipPath id="907f129aaf"><path d="M 2.890625 66.292969 L 446.890625 66.292969 L 446.890625 383.542969 L 2.890625 383.542969 Z M 2.890625 66.292969 " clip-rule="nonzero"/></clipPath></defs><g clip-path="url(#907f129aaf)"><path fill="#060644" d="M 50.484375 66.351562 C 24.199219 66.351562 2.890625 87.628906 2.890625 113.945312 C 3.480469 186.117188 2.890625 262.503906 2.890625 336.050781 C 2.890625 361.382812 22.59375 381.882812 47.511719 383.398438 L 401.492188 383.648438 C 426.867188 382.621094 447.101562 361.714844 447.101562 336.054688 L 447.101562 105.769531 C 443.25 83.332031 423.769531 66.355469 400.25 66.355469 C 283.726562 66.40625 167.058594 66.355469 50.484375 66.355469 Z M 49.742188 91.390625 L 401.738281 91.390625 L 231.4375 261.6875 C 228.332031 264.796875 223.390625 264.796875 220.285156 261.6875 L 49.738281 91.390625 Z M 423.308594 103.535156 L 423.308594 334.320312 C 423.308594 348.070312 418.351562 355.835938 408.433594 358.613281 L 288.457031 238.390625 L 423.308594 103.539062 Z M 29.417969 104.527344 L 162.039062 237.148438 L 40.824219 358.363281 C 32.527344 355.5625 29.636719 348.878906 29.421875 339.769531 L 29.421875 104.527344 Z M 178.894531 253.75 L 220.292969 295.394531 C 223.398438 298.503906 228.339844 298.503906 231.449219 295.394531 L 271.605469 255.238281 L 376.214844 359.847656 L 72.804688 359.847656 L 178.898438 253.753906 Z M 178.894531 253.75 " fill-opacity="1" fill-rule="nonzero"/></g></svg>
