<svg xmlns="http://www.w3.org/2000/svg" xmlns:xlink="http://www.w3.org/1999/xlink" width="158" zoomAndPan="magnify" viewBox="0 0 118.5 65.249999" height="87" preserveAspectRatio="xMidYMid meet" version="1.0"><defs><clipPath id="b8bf8775df"><path d="M 2.578125 24.390625 L 25.515625 24.390625 L 25.515625 51.847656 L 2.578125 51.847656 Z M 2.578125 24.390625 " clip-rule="nonzero"/></clipPath><clipPath id="0a0b278eb7"><path d="M 13.773438 27.503906 C 15.015625 25.390625 13.710938 25.640625 13.089844 25.890625 C 12.46875 26.136719 12.097656 26.507812 11.539062 27.128906 C 10.296875 28.371094 8.0625 31.105469 6.882812 33.339844 C 5.765625 35.449219 4.894531 37.746094 4.460938 40.167969 C 3.964844 42.714844 3.59375 46.4375 4.152344 48.238281 C 4.460938 49.355469 5.082031 50.535156 5.765625 50.597656 C 6.820312 50.660156 8.496094 47.804688 9.863281 45.941406 C 11.539062 43.644531 13.339844 39.238281 14.707031 37.808594 C 15.386719 37.0625 16.132812 36.441406 16.628906 36.503906 C 16.941406 36.566406 17.3125 36.878906 17.375 37.3125 C 17.5 38.304688 15.078125 41.160156 14.457031 42.714844 C 14.023438 43.832031 14.207031 45.445312 13.773438 45.816406 C 13.464844 46.003906 12.71875 45.941406 12.59375 45.691406 C 12.222656 44.949219 15.824219 38.492188 16.628906 38.554688 C 17.003906 38.554688 17.25 39.359375 17.375 40.042969 C 17.5625 41.347656 16.132812 45.382812 16.753906 46.066406 C 17.066406 46.375 17.746094 46.375 18.304688 46.003906 C 19.921875 45.074219 23.085938 36.691406 24.328125 35.820312 C 24.699219 35.574219 25.074219 35.511719 25.257812 35.636719 C 25.382812 35.761719 25.507812 36.441406 25.320312 36.566406 C 25.199219 36.691406 24.390625 36.628906 24.328125 36.441406 C 24.203125 36.257812 24.636719 35.574219 24.824219 35.511719 C 25.011719 35.511719 25.445312 36.007812 25.445312 36.320312 C 25.507812 36.816406 24.949219 37.375 24.453125 38.179688 C 23.335938 40.105469 20.230469 46.5625 18.492188 47.371094 C 17.746094 47.742188 16.878906 47.371094 16.320312 47.121094 C 15.945312 46.871094 15.699219 46.625 15.511719 46.066406 C 15.140625 44.761719 15.449219 39.734375 16.007812 38.925781 C 16.195312 38.617188 16.566406 38.492188 16.753906 38.554688 C 16.941406 38.679688 17.125 39.050781 17.125 39.421875 C 17.125 40.417969 15.449219 43.582031 14.707031 44.761719 C 14.269531 45.382812 13.835938 46.003906 13.402344 46.066406 C 13.152344 46.128906 12.71875 46.003906 12.59375 45.691406 C 12.222656 44.761719 14.085938 39.980469 15.015625 38.367188 C 15.574219 37.4375 16.382812 36.441406 16.753906 36.503906 C 17.003906 36.503906 17.375 37.125 17.3125 37.4375 C 17.1875 37.808594 16.382812 37.808594 15.824219 38.367188 C 14.765625 39.484375 13.710938 42.527344 12.347656 44.574219 C 10.792969 46.75 8.558594 50.039062 7.007812 51.09375 C 6.261719 51.589844 5.515625 51.964844 4.894531 51.777344 C 4.089844 51.46875 3.28125 49.914062 2.910156 48.488281 C 2.351562 46.375 2.722656 42.589844 3.21875 39.859375 C 3.714844 37.3125 4.957031 34.582031 5.828125 32.65625 C 6.511719 31.289062 6.945312 30.484375 7.8125 29.304688 C 8.929688 27.9375 10.792969 25.828125 12.035156 25.019531 C 12.78125 24.585938 13.402344 24.398438 14.148438 24.398438 C 14.828125 24.398438 16.070312 24.460938 16.320312 24.957031 C 16.628906 25.578125 15.636719 27.6875 15.015625 28.1875 C 14.707031 28.558594 14.085938 28.746094 13.835938 28.621094 C 13.648438 28.496094 13.773438 27.503906 13.773438 27.503906 " clip-rule="nonzero"/></clipPath><clipPath id="fd762e8f12"><path d="M 22 19.824219 L 114.636719 19.824219 L 114.636719 61.9375 L 22 61.9375 Z M 22 19.824219 " clip-rule="nonzero"/></clipPath><clipPath id="38fed73ae5"><path d="M 25.445312 36.566406 C 23.335938 43.519531 24.078125 39.609375 24.699219 39.296875 C 25.011719 39.113281 25.507812 39.238281 25.816406 39.609375 C 26.996094 41.222656 26.003906 54.324219 25.878906 57.800781 C 25.878906 59.226562 26.003906 60.160156 25.757812 60.839844 C 25.570312 61.277344 25.257812 61.835938 25.011719 61.835938 C 24.699219 61.773438 24.140625 60.53125 23.957031 59.601562 C 23.644531 58.421875 23.644531 56.992188 23.957031 55.253906 C 24.453125 52.273438 26.316406 46.75 27.867188 43.707031 C 28.984375 41.347656 29.914062 39.796875 31.652344 38.058594 C 33.765625 35.820312 38.792969 31.664062 40.097656 31.785156 C 40.53125 31.785156 40.90625 32.222656 40.90625 32.59375 C 40.90625 33.339844 38.667969 34.582031 38.109375 35.699219 C 37.675781 36.566406 37.367188 38.492188 37.488281 38.554688 C 37.675781 38.617188 39.539062 33.835938 40.285156 32.84375 C 40.53125 32.46875 40.78125 32.160156 41.027344 32.160156 C 41.277344 32.097656 41.648438 32.160156 41.835938 32.46875 C 42.644531 33.585938 42.890625 42.402344 42.144531 43.707031 C 41.898438 44.078125 41.339844 44.265625 41.152344 44.203125 C 40.964844 44.140625 40.84375 43.953125 40.90625 43.707031 C 40.90625 42.714844 43.824219 38.554688 45.25 36.691406 C 46.367188 35.261719 47.859375 33.089844 48.480469 33.214844 C 48.851562 33.277344 48.976562 34.082031 49.160156 34.765625 C 49.410156 35.945312 49.71875 39.050781 49.222656 39.796875 C 48.976562 40.167969 48.230469 40.355469 48.105469 40.230469 C 47.917969 39.980469 49.65625 36.691406 50.527344 36.628906 C 51.398438 36.566406 52.574219 39.734375 53.445312 40.292969 C 53.941406 40.601562 54.375 40.851562 54.8125 40.664062 C 55.679688 40.417969 56.613281 38.925781 57.542969 37.5 C 59.03125 35.324219 61.269531 30.855469 62.136719 28.433594 C 62.695312 26.945312 62.507812 25.207031 63.007812 24.710938 C 63.253906 24.460938 63.566406 24.335938 63.75 24.398438 C 64 24.460938 64.1875 24.769531 64.1875 25.144531 C 64.125 26.632812 59.34375 34.394531 57.792969 35.761719 C 57.230469 36.257812 56.550781 36.503906 56.363281 36.320312 C 56.054688 36.132812 56.363281 34.582031 56.671875 33.835938 C 57.109375 32.964844 58.164062 31.539062 58.722656 31.414062 C 59.03125 31.351562 59.34375 31.539062 59.53125 31.722656 C 59.777344 32.035156 59.839844 32.53125 59.839844 33.027344 C 59.902344 33.960938 59.09375 35.820312 59.46875 36.628906 C 59.714844 37.25 60.460938 37.4375 61.144531 37.871094 C 61.949219 38.367188 62.820312 38.925781 63.9375 39.359375 C 65.550781 39.917969 68.71875 41.285156 69.710938 40.726562 C 70.457031 40.292969 70.023438 38.429688 70.457031 37.746094 C 70.765625 37.375 71.386719 36.878906 71.636719 37 C 71.882812 37.125 71.820312 38.242188 71.699219 38.925781 C 71.574219 39.917969 70.828125 42.15625 70.457031 42.214844 C 70.207031 42.277344 69.835938 41.84375 69.773438 41.472656 C 69.648438 40.539062 71.511719 37.125 72.195312 36.503906 C 72.503906 36.257812 72.753906 36.070312 72.9375 36.195312 C 73.5 36.378906 73.746094 38.492188 74.367188 39.359375 C 74.925781 40.230469 75.671875 40.914062 76.539062 41.535156 C 77.535156 42.277344 79.148438 43.644531 80.140625 43.457031 C 80.949219 43.273438 81.507812 42.03125 82.066406 41.160156 C 82.6875 40.105469 83.121094 37.683594 83.679688 37.558594 C 83.929688 37.4375 84.363281 37.808594 84.550781 38.179688 C 84.859375 38.863281 84.488281 41.472656 84.175781 42.15625 C 83.992188 42.402344 83.679688 42.714844 83.492188 42.652344 C 83.183594 42.527344 82.871094 40.851562 82.871094 40.167969 C 82.8125 39.671875 82.8125 39.175781 83.058594 38.800781 C 83.308594 38.492188 83.617188 38.242188 84.175781 38.121094 C 85.542969 37.808594 89.886719 39.609375 91.5625 38.554688 C 93.242188 37.4375 93.921875 33.464844 94.296875 31.476562 C 94.542969 30.046875 94.667969 27.8125 94.234375 27.6875 C 93.675781 27.503906 91.066406 32.78125 90.199219 33.027344 C 89.949219 33.152344 89.640625 32.964844 89.515625 32.84375 C 89.390625 32.65625 89.328125 32.34375 89.578125 31.972656 C 90.882812 30.046875 111.058594 19.742188 113.605469 19.992188 C 114.101562 20.054688 114.535156 20.550781 114.472656 20.671875 C 114.472656 20.859375 113.480469 21.046875 113.355469 20.921875 C 113.292969 20.796875 113.542969 19.992188 113.726562 19.929688 C 113.914062 19.929688 114.535156 20.425781 114.472656 20.796875 C 114.039062 22.660156 92.558594 33.585938 90.199219 33.027344 C 89.703125 32.902344 89.453125 32.53125 89.515625 32.097656 C 89.515625 31.105469 92.371094 27.628906 93.613281 27.066406 C 94.234375 26.820312 94.980469 26.882812 95.351562 27.191406 C 95.785156 27.628906 95.722656 28.808594 95.722656 29.738281 C 95.660156 30.917969 95.414062 32.285156 94.980469 33.648438 C 94.480469 35.324219 93.738281 38.058594 92.742188 39.050781 C 92.0625 39.671875 91.378906 39.796875 90.386719 39.917969 C 88.769531 40.167969 84.671875 38.679688 83.867188 39.484375 C 83.371094 39.980469 84.363281 41.597656 84.175781 42.15625 C 84.050781 42.402344 83.679688 42.652344 83.492188 42.652344 C 83.308594 42.652344 82.996094 42.402344 82.933594 42.03125 C 82.6875 41.285156 83.183594 37.746094 83.679688 37.558594 C 83.867188 37.4375 84.425781 37.808594 84.550781 38.179688 C 84.734375 38.863281 83.742188 40.726562 83.121094 41.78125 C 82.5625 42.777344 81.816406 43.953125 81.132812 44.390625 C 80.699219 44.636719 80.328125 44.699219 79.769531 44.574219 C 78.773438 44.453125 76.789062 43.273438 75.671875 42.402344 C 74.738281 41.71875 73.933594 40.851562 73.3125 40.042969 C 72.878906 39.484375 72.441406 38.925781 72.320312 38.304688 C 72.132812 37.746094 72.007812 36.816406 72.195312 36.503906 C 72.320312 36.257812 72.816406 36.070312 72.9375 36.195312 C 73.1875 36.320312 73.25 37 73.0625 37.621094 C 72.816406 38.738281 71.078125 42.15625 70.457031 42.214844 C 70.144531 42.214844 69.898438 41.84375 69.773438 41.472656 C 69.585938 40.601562 70.207031 37.871094 70.765625 37.3125 C 70.953125 37 71.449219 36.816406 71.636719 37 C 71.945312 37.3125 71.386719 40.914062 70.765625 41.597656 C 70.457031 41.96875 70.082031 41.90625 69.523438 41.90625 C 68.222656 41.90625 65.242188 41.222656 63.378906 40.417969 C 61.640625 39.734375 59.34375 38.863281 58.597656 37.5 C 57.914062 36.195312 59.21875 32.53125 58.910156 32.46875 C 58.597656 32.34375 57.355469 34.582031 57.230469 35.324219 C 57.171875 35.699219 57.480469 36.132812 57.355469 36.320312 C 57.230469 36.441406 56.488281 36.566406 56.363281 36.320312 C 55.867188 35.636719 60.273438 28.433594 61.765625 26.449219 C 62.507812 25.453125 63.378906 24.273438 63.75 24.398438 C 64.125 24.523438 64.1875 25.949219 64.0625 26.882812 C 63.8125 28.371094 62.757812 30.234375 61.828125 32.097656 C 60.648438 34.519531 58.785156 38.429688 57.355469 40.042969 C 56.550781 41.035156 55.679688 41.65625 54.996094 41.90625 C 54.5 42.09375 54.066406 42.09375 53.570312 41.90625 C 52.949219 41.65625 52.203125 40.914062 51.644531 40.167969 C 50.960938 39.296875 49.84375 37.375 50.03125 36.941406 C 50.09375 36.691406 50.464844 36.566406 50.652344 36.628906 C 50.835938 36.691406 51.148438 37.125 51.148438 37.4375 C 51.148438 37.933594 50.464844 38.863281 49.96875 39.359375 C 49.472656 39.796875 48.480469 40.476562 48.105469 40.230469 C 47.546875 39.859375 48.851562 34.828125 48.292969 34.640625 C 47.609375 34.457031 44.628906 41.410156 43.140625 42.898438 C 42.394531 43.644531 41.585938 44.453125 41.152344 44.203125 C 40.222656 43.707031 40.84375 36.378906 40.84375 34.519531 C 40.84375 33.773438 40.71875 32.964844 40.90625 32.902344 C 41.027344 32.84375 41.339844 33.089844 41.402344 33.339844 C 41.523438 34.207031 39.226562 38.121094 38.484375 39.113281 C 38.109375 39.484375 37.925781 39.796875 37.550781 39.859375 C 37.179688 39.859375 36.496094 39.609375 36.308594 39.113281 C 35.9375 38.367188 36.433594 36.257812 37.054688 35.078125 C 37.675781 33.773438 39.351562 31.910156 40.097656 31.785156 C 40.40625 31.722656 40.84375 31.972656 40.90625 32.160156 C 41.027344 32.40625 40.84375 32.78125 40.53125 33.152344 C 39.539062 34.394531 34.570312 36.753906 32.585938 38.800781 C 30.972656 40.476562 30.039062 42.03125 28.984375 44.203125 C 27.496094 47.183594 25.632812 52.089844 25.199219 55.253906 C 24.886719 57.550781 25.941406 60.28125 25.570312 61.214844 C 25.445312 61.585938 25.199219 61.835938 25.011719 61.835938 C 24.824219 61.835938 24.515625 61.585938 24.328125 61.152344 C 23.460938 59.101562 23.644531 41.097656 24.636719 39.421875 C 24.824219 39.113281 25.074219 39.050781 25.257812 39.050781 C 25.445312 39.050781 25.757812 39.296875 25.816406 39.609375 C 25.941406 40.355469 24.636719 43.148438 23.957031 43.894531 C 23.582031 44.265625 23.148438 44.515625 22.777344 44.453125 C 22.527344 44.390625 22.21875 44.015625 22.09375 43.519531 C 21.84375 42.777344 22.28125 41.097656 22.652344 39.859375 C 23.023438 38.617188 23.769531 36.753906 24.265625 36.132812 C 24.515625 35.882812 24.824219 35.699219 25.011719 35.761719 C 25.199219 35.820312 25.445312 36.566406 25.445312 36.566406 " clip-rule="nonzero"/></clipPath><clipPath id="c7b417d339"><path d="M 10.792969 2.421875 L 48.625 2.421875 L 48.625 17 L 10.792969 17 Z M 10.792969 2.421875 " clip-rule="nonzero"/></clipPath><clipPath id="9d704dfc58"><path d="M 11.414062 15.644531 C 26.6875 10.925781 45.0625 2.421875 47.734375 2.546875 C 48.230469 2.546875 48.480469 2.730469 48.601562 2.917969 C 48.664062 3.105469 48.355469 3.664062 48.167969 3.726562 C 47.917969 3.785156 47.421875 3.414062 47.359375 3.226562 C 47.359375 3.042969 47.671875 2.546875 47.859375 2.484375 C 48.105469 2.421875 48.480469 2.667969 48.539062 2.855469 C 48.601562 3.042969 48.539062 3.351562 48.230469 3.664062 C 46.304688 5.585938 26.625 12.105469 20.417969 14.339844 C 17.3125 15.457031 15.140625 16.328125 13.402344 16.636719 C 12.53125 16.886719 11.664062 17.074219 11.289062 16.886719 C 11.042969 16.761719 10.855469 16.453125 10.855469 16.265625 C 10.855469 16.078125 11.414062 15.644531 11.414062 15.644531 " clip-rule="nonzero"/></clipPath></defs><g clip-path="url(#b8bf8775df)"><g clip-path="url(#0a0b278eb7)"><path fill="#060644" d="M 0.425781 21.914062 L 27.992188 21.914062 L 27.992188 54.21875 L 0.425781 54.21875 Z M 0.425781 21.914062 " fill-opacity="1" fill-rule="nonzero"/></g></g><g clip-path="url(#fd762e8f12)"><g clip-path="url(#38fed73ae5)"><path fill="#060644" d="M 19.609375 17.445312 L 117.019531 17.445312 L 117.019531 64.316406 L 19.609375 64.316406 Z M 19.609375 17.445312 " fill-opacity="1" fill-rule="nonzero"/></g></g><g clip-path="url(#c7b417d339)"><g clip-path="url(#9d704dfc58)"><path fill="#060644" d="M 8.371094 0 L 51.121094 0 L 51.121094 19.371094 L 8.371094 19.371094 Z M 8.371094 0 " fill-opacity="1" fill-rule="nonzero"/></g></g></svg>
