<svg xmlns="http://www.w3.org/2000/svg" xmlns:xlink="http://www.w3.org/1999/xlink" width="600" zoomAndPan="magnify" viewBox="0 0 450 449.999984" height="600" preserveAspectRatio="xMidYMid meet" version="1.0"><path fill="#060644" d="M 319.585938 286.242188 C 312.664062 282.183594 304.160156 282.269531 297.277344 286.359375 L 262.40625 307.136719 C 254.601562 311.789062 244.851562 311.242188 237.695312 305.652344 C 225.324219 295.988281 205.402344 279.730469 188.070312 262.398438 C 170.738281 245.066406 154.476562 225.144531 144.816406 212.773438 C 139.226562 205.613281 138.679688 195.867188 143.332031 188.0625 L 164.105469 153.191406 C 168.214844 146.308594 168.25 137.734375 164.191406 130.816406 L 113.03125 43.421875 C 108.070312 34.96875 98.222656 30.8125 88.695312 33.144531 C 79.441406 35.394531 67.425781 40.882812 54.832031 53.496094 C 15.394531 92.929688 -5.550781 159.445312 142.753906 307.75 C 291.054688 456.050781 357.554688 435.125 397.007812 395.671875 C 409.636719 383.042969 415.105469 371.011719 417.375 361.738281 C 419.675781 352.230469 415.582031 342.445312 407.148438 337.503906 C 386.082031 325.183594 340.648438 298.582031 319.585938 286.242188 Z M 319.585938 286.242188 " fill-opacity="1" fill-rule="nonzero"/></svg>
